# xmcd CD database file
#
# Track frame offsets:
#	150
#	28316
#	48887
#	65851
#	76239
#	95382
#	116016
#	123987
#	132923
#	144301
#	154013
#	164931
#	176999
#	189525
#	198707
#
# Disc length: 3113 seconds
#
# Revision: 0
# Processed by: cddbd v1.5.2PL0 Copyright (c) Steve Scherf et al.
# Submitted via: CDex 1.70beta2
#
DISCID=e00c270f
DTITLE=Morton Feldman Trio (Aki Takahashi, Rohan de Saram, Marc Sabat) - Morton Feldman Trio
DYEAR=2009
DGENRE=New Age
TTITLE0=P38 S1 M1 B1
TTITLE1=P41 S1 M1 B1
TTITLE2=P44 S1 M1 B1
TTITLE3=P46 S1 M1 B1
TTITLE4=P47 S1 M1 B1
TTITLE5=P48 S3 M6 B1
TTITLE6=P49 S4 M9 B1
TTITLE7=P51 S1 M4 B1
TTITLE8=P53 S1 M1 B1
TTITLE9=P55 S3 M1 B1
TTITLE10=P57 S1 M2 B1
TTITLE11=P60 S1 M1 B1
TTITLE12=P62 S1 M1 B1
TTITLE13=P64 S1 M1 B1
TTITLE14=P67 S1 M1 B1
EXTD=YEAR: 2009
EXTT0=
EXTT1=
EXTT2=
EXTT3=
EXTT4=
EXTT5=
EXTT6=
EXTT7=
EXTT8=
EXTT9=
EXTT10=
EXTT11=
EXTT12=
EXTT13=
EXTT14=
PLAYORDER=
